{"title":"The Imaginarium of Doctor Parnassus DVDSCR LiNE READNFO XViD - I","uid":5305285,"size":1460742924,"categoryP":"video","categoryS":"movies","magnet":"?xt=urn:btih:d34a5c5214d143f5e73082b419efc89f9fe5ea24&amp;dn=The+Imaginarium+of+Doctor+Parnassus+DVDSCR+LiNE+READNFO+XViD+-+I&amp;tr=udp%3A%2F%2Ftracker.openbittorrent.com%3A80&amp;tr=udp%3A%2F%2Fopen.demonii.com%3A1337&amp;tr=udp%3A%2F%2Ftracker.coppersurfer.tk%3A6969&amp;tr=udp%3A%2F%2Fexodus.desync.com%3A6969","seeders":0,"leechers":0,"uploader":"thenoobish","files":3,"time":1264366416,"description":"The Imaginarium of Doctor Parnassus DVDSCR LiNE READNFO XViD - IMAGiNE.avi\n\nRipper ...........: IMAGiNE IMDB Rating.......:7.4/10 \nVideo Codec.......: XVID Release Date......:22/01/10\nAudio Codec.......:MP3 Theatre Date......:08/01/10\nAudio Bitrate.....:96 Runtime.......:1h 57mn\nSubtitles.........:NIL Language..........:ENGLISH\nResolution...... 624 x 336 IMDb URL..........:http://www.imdb.com/title/tt1054606/\n\n\nDETAILS:\n\nVideo\nID : 0\nFormat : MPEG-4 Visual\nFormat profile : Advanced Simple@L5\nFormat settings, BVOP : Yes\nFormat settings, QPel : No\nFormat settings, GMC : No warppoints\nFormat settings, Matrix : Default (H.263)\nMuxing mode : Packed bitstream\nCodec ID : XVID\nCodec ID/Hint : XviD\nDuration : 1h 57mn\nBit rate : 1 540 Kbps\nWidth : 624 pixels\nHeight : 336 pixels\nDisplay aspect ratio : 1.857\nFrame rate : 25.000 fps\nResolution : 24 bits\nColorimetry : 4:2:0\nScan type : Progressive\nBits/(Pixel*Frame) : 0.294\nStream size : 1.26 GiB (94%)\nWriting library : XviD 1.2.1 (UTC 2008-12-04)\n\nAudio\nID : 1\nFormat : MPEG Audio\nCodec ID : 55\nCodec ID/Hint : MP3\nDuration : 1h 57mn\nBit rate : 96.0 Kbps\nChannel(s) : 2 channels\nSampling rate : 22.05 KHz\nStream size : 80.4 MiB (6%)\nAlignment : Split accross interleaves\nInterleave, duration : 40 ms (1.00 video frame)\nInterleave, preload duration : 500 ms\n\nRipper ...........: IMAGiNE IMDB Rating.......:7.4/10 \nVideo Codec.......: XVID Release Date......:22/01/10\nAudio Codec.......:MP3 Theatre Date......:08/01/10\nAudio Bitrate.....:96 Runtime.......:1h 57mn\nSubtitles.........:NIL Language..........:ENGLISH\nResolution...... 624 x 336 IMDb URL..........:http://www.imdb.com/title/tt1054606/\n\n\nDETAILS:\n\nVideo\nID : 0\nFormat : MPEG-4 Visual\nFormat profile : Advanced Simple@L5\nFormat settings, BVOP : Yes\nFormat settings, QPel : No\nRipper ...........: IMAGiNE IMDB Rating.......:7.4/10 \nVideo Codec.......: XVID Release Date......:22/01/10\nAudio Codec.......:MP3 Theatre Date......:08/01/10\nAudio Bitrate.....:96 Runtime.......:1h 57mn\nSubtitles.........:NIL Language..........:ENGLISH\nResolution...... 624 x 336 IMDb URL..........:http://www.imdb.com/title/tt1054606/\n\n\nDETAILS:\n\nVideo\nID : 0\nFormat : MPEG-4 Visual\nFormat profile : Advanced Simple@L5\nFormat settings, BVOP : Yes\nFormat settings, QPel : No\nFormat settings, GMC : No warppoints\nFormat settings, Matrix : Default (H.263)\nMuxing mode : Packed bitstream\nCodec ID : XVID\nCodec ID/Hint : XviD\nDuration : 1h 57mn\nBit rate : 1 540 Kbps\nWidth : 624 pixels\nHeight : 336 pixels\nDisplay aspect ratio : 1.857\nFrame rate : 25.000 fps\nResolution : 24 bits\nColorimetry : 4:2:0\nScan type : Progressive\nBits/(Pixel*Frame) : 0.294\nStream size : 1.26 GiB (94%)\nWriting library : XviD 1.2.1 (UTC 2008-12-04)\n\nAudio\nID : 1\nFormat : MPEG Audio\nCodec ID : 55\nCodec ID/Hint : MP3\nDuration : 1h 57mn\nBit rate : 96.0 Kbps\nChannel(s) : 2 channels\nSampling rate : 22.05 KHz\nStream size : 80.4 MiB (6%)\nAlignment : Split accross interleaves\nInterleave, duration : 40 ms (1.00 video frame)\nInterleave, preload duration : 500 ms","torrent":{"xt":"urn:btih:d34a5c5214d143f5e73082b419efc89f9fe5ea24","amp;dn":"The+Imaginarium+of+Doctor+Parnassus+DVDSCR+LiNE+READNFO+XViD+-+I","amp;tr":["udp%3A%2F%2Ftracker.openbittorrent.com%3A80","udp%3A%2F%2Fopen.demonii.com%3A1337","udp%3A%2F%2Ftracker.coppersurfer.tk%3A6969","udp%3A%2F%2Fexodus.desync.com%3A6969"],"infoHash":"d34a5c5214d143f5e73082b419efc89f9fe5ea24","infoHashBuffer":{"type":"Buffer","data":[211,74,92,82,20,209,67,245,231,48,130,180,25,239,200,159,159,229,234,36]},"announce":[],"urlList":[]}}